# xmcd CD database file
#
# Track frame offsets:
#	150
#	16237
#	30802
#	46247
#	59267
#	73092
#	87927
#	101402
#	119530
#	135000
#	149947
#	165567
#
# Disc length: 2398 seconds
#
# Revision: 0
# Processed by: cddbd v1.5.1PL0 Copyright (c) Steve Scherf et al.
# Submitted via: CDex 1.51
#
DISCID=99095c0c
DTITLE=小鳳鳳 - 新年打鑼鼓
DYEAR=1994
DGENRE=World
TTITLE0=新年は銅鑼や太鼓を打ち鳴らし
TTITLE1=迎春に福を迎え入れ
TTITLE2=希望は新年にあり
TTITLE3=一家楽しく良いお年を
TTITLE4=明るい将来
TTITLE5=喜び楽しい新年のお祝い
TTITLE6=あなたを守る五福神
TTITLE7=福の神様を迎え入れ
TTITLE8=新しい一年は富みに恵まれ
TTITLE9=めでたしめでたし大繁盛
TTITLE10=一面紅い初九の日
TTITLE11=新年の銅鑼や太鼓が響いてくる
EXTD=YEAR: 1994
EXTT0=
EXTT1=
EXTT2=
EXTT3=
EXTT4=
EXTT5=
EXTT6=
EXTT7=
EXTT8=
EXTT9=
EXTT10=
EXTT11=
PLAYORDER=
